<mxfile host="Electron" agent="Mozilla/5.0 (Macintosh; Intel Mac OS X 10_15_7) AppleWebKit/537.36 (KHTML, like Gecko) draw.io/24.7.17 Chrome/128.0.6613.36 Electron/32.0.1 Safari/537.36" version="24.7.17">
  <diagram name="Page-1" id="g4qGTQ4zQkpkl8TvkoWw">
    <mxGraphModel dx="804" dy="683" grid="1" gridSize="10" guides="1" tooltips="1" connect="1" arrows="1" fold="1" page="1" pageScale="1" pageWidth="827" pageHeight="1169" math="0" shadow="0">
      <root>
        <mxCell id="0" />
        <mxCell id="1" parent="0" />
        <mxCell id="v3Ff1kUIgIHhmVwFfDah-3" value="" style="edgeStyle=orthogonalEdgeStyle;rounded=0;orthogonalLoop=1;jettySize=auto;html=1;" edge="1" parent="1" source="v3Ff1kUIgIHhmVwFfDah-1" target="v3Ff1kUIgIHhmVwFfDah-2">
          <mxGeometry relative="1" as="geometry" />
        </mxCell>
        <mxCell id="v3Ff1kUIgIHhmVwFfDah-1" value="User" style="shape=umlActor;verticalLabelPosition=bottom;verticalAlign=top;html=1;outlineConnect=0;" vertex="1" parent="1">
          <mxGeometry x="80" y="300" width="30" height="60" as="geometry" />
        </mxCell>
        <mxCell id="v3Ff1kUIgIHhmVwFfDah-7" value="" style="edgeStyle=orthogonalEdgeStyle;rounded=0;orthogonalLoop=1;jettySize=auto;html=1;" edge="1" parent="1" source="v3Ff1kUIgIHhmVwFfDah-2" target="v3Ff1kUIgIHhmVwFfDah-4">
          <mxGeometry relative="1" as="geometry" />
        </mxCell>
        <mxCell id="v3Ff1kUIgIHhmVwFfDah-2" value="&lt;font style=&quot;font-size: 18px;&quot;&gt;Gateway&lt;/font&gt;" style="rounded=1;whiteSpace=wrap;html=1;" vertex="1" parent="1">
          <mxGeometry x="180" y="300" width="120" height="60" as="geometry" />
        </mxCell>
        <mxCell id="v3Ff1kUIgIHhmVwFfDah-6" value="" style="edgeStyle=orthogonalEdgeStyle;rounded=0;orthogonalLoop=1;jettySize=auto;html=1;" edge="1" parent="1" source="v3Ff1kUIgIHhmVwFfDah-4" target="v3Ff1kUIgIHhmVwFfDah-5">
          <mxGeometry relative="1" as="geometry" />
        </mxCell>
        <mxCell id="v3Ff1kUIgIHhmVwFfDah-9" value="" style="edgeStyle=orthogonalEdgeStyle;rounded=0;orthogonalLoop=1;jettySize=auto;html=1;" edge="1" parent="1" source="v3Ff1kUIgIHhmVwFfDah-4" target="v3Ff1kUIgIHhmVwFfDah-8">
          <mxGeometry relative="1" as="geometry" />
        </mxCell>
        <mxCell id="v3Ff1kUIgIHhmVwFfDah-14" style="edgeStyle=orthogonalEdgeStyle;rounded=0;orthogonalLoop=1;jettySize=auto;html=1;entryX=0;entryY=0.5;entryDx=0;entryDy=0;" edge="1" parent="1" source="v3Ff1kUIgIHhmVwFfDah-4" target="v3Ff1kUIgIHhmVwFfDah-13">
          <mxGeometry relative="1" as="geometry">
            <Array as="points">
              <mxPoint x="600" y="320" />
              <mxPoint x="600" y="200" />
            </Array>
          </mxGeometry>
        </mxCell>
        <mxCell id="v3Ff1kUIgIHhmVwFfDah-4" value="&lt;font style=&quot;font-size: 18px;&quot;&gt;Order&lt;/font&gt;" style="rounded=1;whiteSpace=wrap;html=1;" vertex="1" parent="1">
          <mxGeometry x="360" y="300" width="120" height="60" as="geometry" />
        </mxCell>
        <mxCell id="v3Ff1kUIgIHhmVwFfDah-5" value="&lt;font style=&quot;font-size: 18px;&quot;&gt;Order&lt;/font&gt;" style="shape=cylinder3;whiteSpace=wrap;html=1;boundedLbl=1;backgroundOutline=1;size=15;" vertex="1" parent="1">
          <mxGeometry x="370" y="430" width="100" height="80" as="geometry" />
        </mxCell>
        <mxCell id="v3Ff1kUIgIHhmVwFfDah-16" value="" style="edgeStyle=orthogonalEdgeStyle;rounded=0;orthogonalLoop=1;jettySize=auto;html=1;" edge="1" parent="1" source="v3Ff1kUIgIHhmVwFfDah-8" target="v3Ff1kUIgIHhmVwFfDah-15">
          <mxGeometry relative="1" as="geometry" />
        </mxCell>
        <mxCell id="v3Ff1kUIgIHhmVwFfDah-8" value="&lt;font style=&quot;font-size: 18px;&quot;&gt;Stock&lt;/font&gt;" style="rounded=1;whiteSpace=wrap;html=1;" vertex="1" parent="1">
          <mxGeometry x="720" y="300" width="120" height="60" as="geometry" />
        </mxCell>
        <mxCell id="v3Ff1kUIgIHhmVwFfDah-10" value="&lt;font style=&quot;font-size: 18px;&quot;&gt;Menu&lt;/font&gt;" style="shape=cylinder3;whiteSpace=wrap;html=1;boundedLbl=1;backgroundOutline=1;size=15;" vertex="1" parent="1">
          <mxGeometry x="910" y="160" width="100" height="80" as="geometry" />
        </mxCell>
        <mxCell id="v3Ff1kUIgIHhmVwFfDah-17" value="" style="edgeStyle=orthogonalEdgeStyle;rounded=0;orthogonalLoop=1;jettySize=auto;html=1;" edge="1" parent="1" source="v3Ff1kUIgIHhmVwFfDah-13" target="v3Ff1kUIgIHhmVwFfDah-10">
          <mxGeometry relative="1" as="geometry" />
        </mxCell>
        <mxCell id="v3Ff1kUIgIHhmVwFfDah-13" value="&lt;font style=&quot;font-size: 18px;&quot;&gt;Menu&lt;/font&gt;" style="rounded=1;whiteSpace=wrap;html=1;" vertex="1" parent="1">
          <mxGeometry x="720" y="170" width="120" height="60" as="geometry" />
        </mxCell>
        <mxCell id="v3Ff1kUIgIHhmVwFfDah-15" value="&lt;font style=&quot;font-size: 18px;&quot;&gt;Stock&lt;/font&gt;" style="shape=cylinder3;whiteSpace=wrap;html=1;boundedLbl=1;backgroundOutline=1;size=15;" vertex="1" parent="1">
          <mxGeometry x="910" y="290" width="100" height="80" as="geometry" />
        </mxCell>
        <mxCell id="v3Ff1kUIgIHhmVwFfDah-29" value="" style="edgeStyle=orthogonalEdgeStyle;rounded=0;orthogonalLoop=1;jettySize=auto;html=1;" edge="1" parent="1" source="v3Ff1kUIgIHhmVwFfDah-18" target="v3Ff1kUIgIHhmVwFfDah-28">
          <mxGeometry relative="1" as="geometry" />
        </mxCell>
        <mxCell id="v3Ff1kUIgIHhmVwFfDah-18" value="&lt;font style=&quot;font-size: 18px;&quot;&gt;Payment&lt;/font&gt;" style="rounded=1;whiteSpace=wrap;html=1;" vertex="1" parent="1">
          <mxGeometry x="720" y="390" width="120" height="60" as="geometry" />
        </mxCell>
        <mxCell id="v3Ff1kUIgIHhmVwFfDah-27" style="edgeStyle=orthogonalEdgeStyle;rounded=0;orthogonalLoop=1;jettySize=auto;html=1;entryX=0;entryY=0.5;entryDx=0;entryDy=0;" edge="1" parent="1" source="v3Ff1kUIgIHhmVwFfDah-20" target="v3Ff1kUIgIHhmVwFfDah-18">
          <mxGeometry relative="1" as="geometry" />
        </mxCell>
        <mxCell id="v3Ff1kUIgIHhmVwFfDah-20" value="&lt;font style=&quot;font-size: 14px;&quot;&gt;Order&lt;/font&gt;&lt;div&gt;&lt;font style=&quot;font-size: 14px;&quot;&gt;Created&lt;/font&gt;&lt;/div&gt;" style="strokeWidth=2;html=1;shape=mxgraph.flowchart.direct_data;whiteSpace=wrap;" vertex="1" parent="1">
          <mxGeometry x="550" y="390" width="100" height="60" as="geometry" />
        </mxCell>
        <mxCell id="v3Ff1kUIgIHhmVwFfDah-34" style="edgeStyle=orthogonalEdgeStyle;rounded=0;orthogonalLoop=1;jettySize=auto;html=1;entryX=0;entryY=0.75;entryDx=0;entryDy=0;" edge="1" parent="1" source="v3Ff1kUIgIHhmVwFfDah-21" target="v3Ff1kUIgIHhmVwFfDah-4">
          <mxGeometry relative="1" as="geometry">
            <Array as="points">
              <mxPoint x="670" y="550" />
              <mxPoint x="670" y="600" />
              <mxPoint x="340" y="600" />
              <mxPoint x="340" y="345" />
            </Array>
          </mxGeometry>
        </mxCell>
        <mxCell id="v3Ff1kUIgIHhmVwFfDah-35" style="edgeStyle=orthogonalEdgeStyle;rounded=0;orthogonalLoop=1;jettySize=auto;html=1;entryX=0;entryY=0.75;entryDx=0;entryDy=0;" edge="1" parent="1" source="v3Ff1kUIgIHhmVwFfDah-21" target="v3Ff1kUIgIHhmVwFfDah-8">
          <mxGeometry relative="1" as="geometry">
            <Array as="points">
              <mxPoint x="680" y="530" />
              <mxPoint x="680" y="345" />
            </Array>
          </mxGeometry>
        </mxCell>
        <mxCell id="v3Ff1kUIgIHhmVwFfDah-37" style="edgeStyle=orthogonalEdgeStyle;rounded=0;orthogonalLoop=1;jettySize=auto;html=1;entryX=0;entryY=0.5;entryDx=0;entryDy=0;" edge="1" parent="1" source="v3Ff1kUIgIHhmVwFfDah-21" target="v3Ff1kUIgIHhmVwFfDah-36">
          <mxGeometry relative="1" as="geometry" />
        </mxCell>
        <mxCell id="v3Ff1kUIgIHhmVwFfDah-21" value="&lt;font style=&quot;font-size: 14px;&quot;&gt;Order&lt;/font&gt;&lt;div&gt;&lt;font style=&quot;font-size: 14px;&quot;&gt;Paid&lt;/font&gt;&lt;/div&gt;" style="strokeWidth=2;html=1;shape=mxgraph.flowchart.direct_data;whiteSpace=wrap;" vertex="1" parent="1">
          <mxGeometry x="550" y="510" width="100" height="60" as="geometry" />
        </mxCell>
        <mxCell id="v3Ff1kUIgIHhmVwFfDah-40" style="edgeStyle=orthogonalEdgeStyle;rounded=0;orthogonalLoop=1;jettySize=auto;html=1;entryX=0;entryY=0.25;entryDx=0;entryDy=0;" edge="1" parent="1" source="v3Ff1kUIgIHhmVwFfDah-22" target="v3Ff1kUIgIHhmVwFfDah-4">
          <mxGeometry relative="1" as="geometry">
            <Array as="points">
              <mxPoint x="680" y="680" />
              <mxPoint x="680" y="750" />
              <mxPoint x="320" y="750" />
              <mxPoint x="320" y="315" />
            </Array>
          </mxGeometry>
        </mxCell>
        <mxCell id="v3Ff1kUIgIHhmVwFfDah-22" value="&lt;font style=&quot;font-size: 14px;&quot;&gt;Order&lt;/font&gt;&lt;div&gt;&lt;font style=&quot;font-size: 14px;&quot;&gt;Updated&lt;/font&gt;&lt;/div&gt;" style="strokeWidth=2;html=1;shape=mxgraph.flowchart.direct_data;whiteSpace=wrap;" vertex="1" parent="1">
          <mxGeometry x="550" y="650" width="100" height="60" as="geometry" />
        </mxCell>
        <mxCell id="v3Ff1kUIgIHhmVwFfDah-26" style="edgeStyle=orthogonalEdgeStyle;rounded=0;orthogonalLoop=1;jettySize=auto;html=1;exitX=1;exitY=0.5;exitDx=0;exitDy=0;entryX=0;entryY=0.5;entryDx=0;entryDy=0;entryPerimeter=0;" edge="1" parent="1" source="v3Ff1kUIgIHhmVwFfDah-4" target="v3Ff1kUIgIHhmVwFfDah-20">
          <mxGeometry relative="1" as="geometry">
            <Array as="points">
              <mxPoint x="480" y="340" />
              <mxPoint x="515" y="340" />
              <mxPoint x="515" y="420" />
            </Array>
          </mxGeometry>
        </mxCell>
        <mxCell id="v3Ff1kUIgIHhmVwFfDah-28" value="&lt;font style=&quot;font-size: 18px;&quot;&gt;Stripe&lt;/font&gt;" style="rounded=1;whiteSpace=wrap;html=1;" vertex="1" parent="1">
          <mxGeometry x="900" y="390" width="120" height="60" as="geometry" />
        </mxCell>
        <mxCell id="v3Ff1kUIgIHhmVwFfDah-33" style="edgeStyle=orthogonalEdgeStyle;rounded=0;orthogonalLoop=1;jettySize=auto;html=1;entryX=0;entryY=0.5;entryDx=0;entryDy=0;entryPerimeter=0;" edge="1" parent="1" source="v3Ff1kUIgIHhmVwFfDah-18" target="v3Ff1kUIgIHhmVwFfDah-21">
          <mxGeometry relative="1" as="geometry">
            <Array as="points">
              <mxPoint x="780" y="470" />
              <mxPoint x="510" y="470" />
              <mxPoint x="510" y="540" />
            </Array>
          </mxGeometry>
        </mxCell>
        <mxCell id="v3Ff1kUIgIHhmVwFfDah-36" value="&lt;font style=&quot;font-size: 18px;&quot;&gt;Kitchen&lt;/font&gt;" style="rounded=1;whiteSpace=wrap;html=1;" vertex="1" parent="1">
          <mxGeometry x="720" y="510" width="120" height="60" as="geometry" />
        </mxCell>
        <mxCell id="v3Ff1kUIgIHhmVwFfDah-39" style="edgeStyle=orthogonalEdgeStyle;rounded=0;orthogonalLoop=1;jettySize=auto;html=1;entryX=0;entryY=0.5;entryDx=0;entryDy=0;entryPerimeter=0;" edge="1" parent="1" source="v3Ff1kUIgIHhmVwFfDah-36" target="v3Ff1kUIgIHhmVwFfDah-22">
          <mxGeometry relative="1" as="geometry">
            <Array as="points">
              <mxPoint x="870" y="540" />
              <mxPoint x="870" y="620" />
              <mxPoint x="510" y="620" />
              <mxPoint x="510" y="680" />
            </Array>
          </mxGeometry>
        </mxCell>
      </root>
    </mxGraphModel>
  </diagram>
</mxfile>
